<?xml version="1.0" encoding="UTF-8"?>
<svg version="1.1" xmlns="http://www.w3.org/2000/svg" width="24" height="24">
<path d="M0 0 C3.12578143 1.6720747 5.39281175 3.7856235 7 7 C7.51512617 11.09157355 7.94367269 15.23589546 5.953125 18.95703125 C3.55501226 21.85592636 1.60351712 23.79811835 -2.171875 24.2734375 C-9.98876369 24.58137554 -9.98876369 24.58137554 -13.5625 21.625 C-17.3057723 17.59378368 -17.39037018 14.90519941 -17.359375 9.55078125 C-16.78039966 5.44131496 -15.00085071 3.78650423 -12 1 C-8.27533151 -0.86233425 -4.05504687 -0.57130829 0 0 Z " fill="#666565" transform="translate(17,0)"/>
<path d="M0 0 C1.17433594 0.01417969 2.34867188 0.02835937 3.55859375 0.04296875 C5.32396484 0.05263672 5.32396484 0.05263672 7.125 0.0625 C9.99609375 0.23046875 9.99609375 0.23046875 10.99609375 1.23046875 C11.03956174 3.22999633 11.03608575 5.23086863 10.99609375 7.23046875 C10.99609375 10.07014106 11.39876556 12.46782586 11.99609375 15.23046875 C9.68609375 15.23046875 7.37609375 15.23046875 4.99609375 15.23046875 C4.66609375 14.57046875 4.33609375 13.91046875 3.99609375 13.23046875 C2.13300283 12.80250695 2.13300283 12.80250695 -0.00390625 12.66796875 C-3.90801584 12.32635916 -3.90801584 12.32635916 -5.00390625 11.23046875 C-5.171875 9.234375 -5.171875 9.234375 -5.19140625 6.79296875 C-5.20558594 5.98988281 -5.21976562 5.18679687 -5.234375 4.359375 C-4.84125937 0.72805266 -3.48362994 0.2672746 0 0 Z " fill="#C83B51" transform="translate(8.00390625,3.76953125)"/>
<path d="M0 0 C2.5 1.5625 2.5 1.5625 5 4 C5.83899995 8.53059972 5.34505672 10.43536173 2.9375 14.375 C-0 17 -0 17 -3.375 18.3125 C-8.11630911 17.90376646 -9.61076254 16.08878507 -12.71484375 12.6640625 C-14 11 -14 11 -14 10 C-11.69 10 -9.38 10 -7 10 C-6.67 10.99 -6.34 11.98 -6 13 C-3.69 13 -1.38 13 1 13 C0.01 10.36 -0.98 7.72 -2 5 C-1.34 5 -0.68 5 0 5 C0 3.35 0 1.7 0 0 Z " fill="#414341" transform="translate(19,6)"/>
<path d="M0 0 C0.94875 0.04125 1.8975 0.0825 2.875 0.125 C2.875 1.445 2.875 2.765 2.875 4.125 C3.865 4.455 4.855 4.785 5.875 5.125 C5.545 6.115 5.215 7.105 4.875 8.125 C4.215 8.125 3.555 8.125 2.875 8.125 C2.875 9.115 2.875 10.105 2.875 11.125 C0.235 11.125 -2.405 11.125 -5.125 11.125 C-5.17899736 9.66707116 -5.21779177 8.20857288 -5.25 6.75 C-5.28480469 5.53183594 -5.28480469 5.53183594 -5.3203125 4.2890625 C-4.98150185 0.53504049 -3.58663539 0.14346542 0 0 Z " fill="#E4626C" transform="translate(8.125,3.875)"/>
<path d="M0 0 C3 1 3 1 5 4 C5 5.32 5 6.64 5 8 C2.69 8 0.38 8 -2 8 C-2.6875 5.6875 -2.6875 5.6875 -3 3 C-1.5625 1.1875 -1.5625 1.1875 0 0 Z " fill="#B2E5B7" transform="translate(15,11)"/>
<path d="M0 0 C2.5 1.5625 2.5 1.5625 5 4 C5.3125 7.75 5.3125 7.75 5 11 C4.34 11 3.68 11 3 11 C0.15549386 7.28026121 -0.3227506 4.62609198 0 0 Z " fill="#4B4342" transform="translate(19,6)"/>
<path d="M0 0 C1.875 0.625 1.875 0.625 4 2 C5.25 5.125 5.25 5.125 6 8 C3 10 3 10 -0.1875 9.625 C-1.5796875 9.315625 -1.5796875 9.315625 -3 9 C-3 8.67 -3 8.34 -3 8 C-1.02 8 0.96 8 3 8 C2.01 5.36 1.02 2.72 0 0 Z " fill="#41974D" transform="translate(17,11)"/>
<path d="M0 0 C0.66 0.33 1.32 0.66 2 1 C1.01 2.98 0.02 4.96 -1 7 C0.98 7 2.96 7 5 7 C5 7.33 5 7.66 5 8 C2.69 8 0.38 8 -2 8 C-2.6875 5.6875 -2.6875 5.6875 -3 3 C-1.5625 1.1875 -1.5625 1.1875 0 0 Z " fill="#7BDE7A" transform="translate(15,11)"/>
<path d="M0 0 C2.475 0.99 2.475 0.99 5 2 C4.67 2.99 4.34 3.98 4 5 C1.9375 5.6875 1.9375 5.6875 0 6 C0 4.02 0 2.04 0 0 Z " fill="#EDE4E5" transform="translate(9,7)"/>
</svg>
