<svg width="36" height="37" viewBox="0 0 36 37" fill="none" xmlns="http://www.w3.org/2000/svg">
<g clip-path="url(#clip0_691_11622)">
<path d="M35.2824 9.89246C35.0789 9.12659 34.6778 8.42759 34.1192 7.86545C33.5607 7.3033 32.8643 6.89772 32.0997 6.68928C29.2852 5.93246 18.0352 5.93246 18.0352 5.93246C18.0352 5.93246 6.78516 5.93246 3.97061 6.68928C3.20605 6.89772 2.50964 7.3033 1.95109 7.86545C1.39253 8.42759 0.991415 9.12659 0.787884 9.89246C0.0351563 12.7193 0.0351562 18.6143 0.0351562 18.6143C0.0351562 18.6143 0.0351563 24.5093 0.787884 27.3361C0.991415 28.102 1.39253 28.801 1.95109 29.3631C2.50964 29.9253 3.20605 30.3308 3.97061 30.5393C6.78516 31.2961 18.0352 31.2961 18.0352 31.2961C18.0352 31.2961 29.2852 31.2961 32.0997 30.5393C32.8643 30.3308 33.5607 29.9253 34.1192 29.3631C34.6778 28.801 35.0789 28.102 35.2824 27.3361C36.0352 24.5093 36.0352 18.6143 36.0352 18.6143C36.0352 18.6143 36.0352 12.7193 35.2824 9.89246Z" fill="#FF0302"/>
<path d="M14.3535 23.9673V13.2614L23.7626 18.6143L14.3535 23.9673Z" fill="#FEFEFE"/>
</g>
<defs>
<clipPath id="clip0_691_11622">
<rect width="36" height="36" fill="white" transform="translate(0 0.614258)"/>
</clipPath>
</defs>
</svg>
